<svg width="500" height="500" viewBox="0 0 500 500" fill="none" xmlns="http://www.w3.org/2000/svg">
<path d="M408.131 408.911H84.652V200.969C84.652 136.92 136.574 84.998 200.623 84.998H292.16C356.209 84.998 408.131 136.92 408.131 200.969V408.911Z" fill="#D4D8FF"/>
<path d="M221.961 202.636C221.961 184.599 216.024 169.977 177.102 169.977C138.18 169.977 132.243 184.599 132.243 202.636C132.243 220.673 138.18 235.295 177.102 235.295C185.025 235.295 191.562 234.68 196.979 233.563C204.478 240.333 213.593 247.641 216.657 246.254C219.836 244.815 218.245 233.062 216.326 223.358C220.83 217.719 221.961 210.503 221.961 202.636Z" fill="white"/>
<path d="M188.617 402.027C225.076 401.748 228.319 402.634 234.86 382.265C240.319 365.263 254.154 313.492 254.154 313.492C258.254 294.564 255.082 286.844 234.755 295.353C217.737 302.476 202.961 357.125 198.298 372.422C198.298 372.422 123.788 381.529 118.514 381.644C108.034 381.873 87.82 385.112 77.51 390.408C67.196 392.897 68.644 396.318 68.644 396.318C64.901 397.5 62.923 402.53 67.454 402.136C71.986 401.743 150.313 402.32 188.617 402.027Z" fill="#ED9D88"/>
<path d="M204.499 351.314C204.499 351.314 203.779 352.817 203.193 355.744C203.193 355.744 227.839 367.443 239.061 368.244C239.061 368.244 240.425 363.202 240.709 362.478C241.734 359.861 204.499 351.314 204.499 351.314Z" fill="black"/>
<path d="M200.337 352.391C207.172 323.376 228.68 289.654 239.67 285.053C259.997 276.544 261.776 295.58 257.676 314.508C251.496 343.921 246.689 363.492 246.689 363.492C246.689 363.492 211.439 357.884 200.337 352.391Z" fill="#7886FF"/>
<path d="M68.644 396.819C68.43 396.819 68.232 396.681 68.166 396.466C68.085 396.202 68.233 395.922 68.497 395.841C69.178 395.632 85.266 390.734 94.204 391.464C94.479 391.487 94.684 391.728 94.662 392.003C94.64 392.278 94.408 392.486 94.122 392.46C85.365 391.737 68.956 396.746 68.79 396.797C68.742 396.812 68.692 396.819 68.644 396.819Z" fill="black"/>
<path d="M76.074 391.61C75.856 391.61 75.655 391.465 75.593 391.245C75.519 390.979 75.674 390.703 75.94 390.629C76.566 390.454 91.304 386.345 94.785 386.245C95.063 386.257 95.291 386.455 95.299 386.731C95.307 387.007 95.089 387.237 94.813 387.245C91.454 387.341 76.361 391.55 76.209 391.592C76.164 391.604 76.119 391.61 76.074 391.61Z" fill="black"/>
<path d="M272.853 257.988L271.334 277.281L258.299 281.616C258.299 281.616 262.219 311.483 288.696 310.167C315.173 308.852 318.646 272.897 318.646 272.897H304.756L309.728 241.032L272.853 257.988Z" fill="#ED9D88"/>
<path d="M271.846 270.776C271.846 270.776 293.614 270.776 302.604 254.392L272.853 257.989L271.846 270.776Z" fill="black"/>
<path d="M364.803 367.36L355.273 401.464L215.341 401.291C215.341 401.291 225.147 297.924 238.168 288.277C251.189 278.631 265.207 279.799 266.075 278.483C266.075 278.483 258.881 294.841 281.886 291.333C304.891 287.825 310.832 272.896 310.832 272.896C310.832 272.896 332.535 273.334 345.556 276.842C358.578 280.351 364.803 367.36 364.803 367.36Z" fill="#7886FF"/>
<path d="M231.809 398.894C231.792 398.894 231.775 398.893 231.758 398.892C231.484 398.864 231.283 398.619 231.311 398.344C231.361 397.85 236.421 348.596 243.966 314.903C244.026 314.634 244.294 314.466 244.563 314.524C244.833 314.584 245.002 314.852 244.941 315.121C237.41 348.756 232.356 397.952 232.306 398.445C232.28 398.702 232.063 398.894 231.809 398.894Z" fill="black"/>
<path d="M344.089 220.212C343.965 213.258 339.05 207.582 332.71 206.551C334.208 202.996 335.035 199.064 334.961 194.919C334.69 179.68 322.688 167.536 308.156 167.795C293.623 168.054 282.063 180.618 282.334 195.857C282.605 211.096 294.606 223.24 309.139 222.981C311.994 222.93 314.728 222.389 317.286 221.462C317.365 222.598 317.561 223.699 317.881 224.743C311.544 225.968 306.796 231.833 306.92 238.814C307.059 246.59 313.182 252.787 320.597 252.654C328.012 252.522 333.911 246.111 333.773 238.335C333.748 236.922 333.52 235.563 333.127 234.282C339.466 233.059 344.213 227.193 344.089 220.212Z" fill="#101229"/>
<path d="M249.943 218.4C246.744 253.552 257.177 262.696 281.387 263.343C305.595 263.99 319.937 243.968 320.618 218.819C321.298 193.664 308.049 172.901 283.839 172.249C259.629 171.597 252.224 193.339 249.943 218.4Z" fill="#ED9D88"/>
<path d="M296.03 206.846C297.193 206.716 298.03 205.668 297.9 204.505C297.77 203.342 296.722 202.505 295.559 202.635L289.543 203.307C288.38 203.437 287.543 204.485 287.673 205.648C287.803 206.811 288.851 207.648 290.014 207.518L296.03 206.846Z" fill="#101229"/>
<path d="M256.569 207.177C255.415 206.985 254.635 205.893 254.827 204.739C255.019 203.585 256.111 202.805 257.265 202.997L263.236 203.992C264.39 204.184 265.17 205.276 264.978 206.43C264.786 207.584 263.694 208.364 262.54 208.172L256.569 207.177Z" fill="#101229"/>
<path d="M274.319 232.093C274.314 232.093 274.31 232.093 274.305 232.093C271.001 232.004 268.386 229.244 268.474 225.94C268.517 224.34 269.181 222.852 270.343 221.751C271.505 220.649 273.031 220.062 274.627 220.11C274.903 220.118 275.121 220.347 275.113 220.624C275.106 220.9 274.886 221.116 274.599 221.11C273.252 221.061 271.998 221.56 271.03 222.477C270.062 223.394 269.508 224.634 269.473 225.968C269.437 227.301 269.923 228.569 270.84 229.537C271.757 230.505 272.997 231.058 274.331 231.094C274.607 231.102 274.825 231.331 274.817 231.608C274.811 231.877 274.588 232.093 274.319 232.093Z" fill="black"/>
<path d="M276.751 244.96C276.632 244.96 276.512 244.958 276.39 244.955C272.408 244.848 270.177 243.009 270.084 242.931C269.873 242.753 269.846 242.439 270.023 242.228C270.2 242.017 270.515 241.99 270.727 242.165C270.748 242.182 272.804 243.859 276.418 243.956C280.035 244.041 282.46 242.481 282.483 242.466C282.713 242.313 283.023 242.374 283.176 242.605C283.329 242.834 283.268 243.144 283.039 243.298C282.935 243.366 280.513 244.96 276.751 244.96Z" fill="black"/>
<path d="M289.87 219.353C289.811 221.555 290.405 223.357 292.607 223.417C294.809 223.476 295.499 221.708 295.558 219.506C295.617 217.304 295.024 215.502 292.821 215.442C290.619 215.383 289.929 217.151 289.87 219.353Z" fill="black"/>
<path d="M260.728 218.38C260.826 220.581 260.264 222.393 258.064 222.491C255.863 222.589 255.142 220.833 255.044 218.633C254.946 216.432 255.507 214.62 257.708 214.522C259.909 214.424 260.63 216.18 260.728 218.38Z" fill="black"/>
<path d="M313.24 218.918C311.454 225.367 315.234 232.042 321.683 233.828C328.131 235.614 334.807 231.834 336.592 225.386C338.378 218.938 334.598 212.262 328.15 210.476C321.701 208.689 315.026 212.469 313.24 218.918Z" fill="#ED9D88"/>
<path d="M320.053 222.523C320.009 222.523 319.964 222.517 319.919 222.505C319.653 222.431 319.497 222.156 319.57 221.89C320.551 218.349 324.231 216.267 327.768 217.247C328.034 217.321 328.19 217.596 328.117 217.862C328.043 218.129 327.766 218.283 327.502 218.211C324.489 217.377 321.368 219.149 320.534 222.156C320.473 222.378 320.272 222.523 320.053 222.523Z" fill="black"/>
<path d="M325.406 228.001C325.364 228.001 325.321 227.996 325.279 227.985C325.012 227.915 324.852 227.642 324.922 227.375C326.028 223.141 322.099 219.039 322.06 218.998C321.868 218.8 321.872 218.483 322.07 218.291C322.268 218.098 322.585 218.103 322.777 218.301C322.956 218.485 327.137 222.855 325.89 227.629C325.831 227.852 325.628 228.001 325.406 228.001Z" fill="black"/>
<path d="M298.274 202.085C301.873 201.062 304.774 198.825 306.75 196.144C311.163 206.118 317.793 218.69 322.676 217.253C330.653 214.906 330.22 198.574 327.911 192.501C325.303 185.643 318.126 179.253 309.175 174.693C311.57 171.433 312.462 167.043 311.131 162.753C308.954 155.742 301.77 151.741 295.084 153.817C291.072 155.062 288.165 158.218 286.94 162.054C286.919 161.982 286.908 161.91 286.886 161.838C284.604 154.486 276.106 150.59 267.906 153.136C259.706 155.682 254.909 163.705 257.191 171.057C257.359 171.6 257.572 172.118 257.806 172.623C257.806 172.623 242.275 173.942 241.464 184.341C240.653 194.74 254.119 195.904 254.119 195.904C254.119 195.904 262.949 208.569 280.596 200.999C280.596 200.999 289.8 204.492 298.274 202.085Z" fill="#101229"/>
<path d="M352.725 401.454C346.333 401.454 350.083 381.45 350.083 381.45H360.4C360.4 381.45 360.44 401.454 352.725 401.454Z" fill="black"/>
<path d="M335.792 317.458L335.289 275.271C365.274 277.364 373.425 295.377 376.141 319.442C380.038 353.979 376.201 381.449 376.201 381.449L327.562 364.61L335.792 317.458Z" fill="#7886FF"/>
<path d="M332.905 213.739C327.333 214.563 303.187 234.55 301.063 236.816C298.938 239.082 292.715 256.649 292.715 258.709C292.715 260.768 297.787 259.521 297.787 259.521L334.337 235.366C334.337 235.366 336.923 218.873 336.305 216.228C335.685 213.582 332.905 213.739 332.905 213.739Z" fill="#CF4192"/>
<path d="M356.407 344.916C351.224 330.015 323.868 260.522 323.868 260.522C323.868 260.522 335.193 240.392 336.398 238.008C338.599 233.652 340.523 229.525 339.622 225.765C338.248 220.032 329.296 216.227 329.296 216.227C325.409 212.772 322.112 220.873 322.112 220.873C315.577 220.225 315.662 225.537 315.662 225.537C313.934 224.241 304.851 223.032 305.057 234.758L309.345 232.4L314.197 233.708C314.197 233.708 297.738 252.101 297.738 260.308C297.738 267.908 318.661 380.704 339.623 396.236C339.623 396.236 342.476 397.896 343.896 397.988C348.91 399.531 357.47 400.569 364.803 393.523C379.064 379.816 376.042 340.34 356.407 344.916Z" fill="#ED9D88"/>
<path d="M300.921 280.911C300.685 280.911 300.476 280.744 300.43 280.504C298.52 270.408 297.237 262.292 297.237 260.307C297.237 252.005 313.146 234.131 313.823 233.374C314.007 233.168 314.323 233.151 314.529 233.335C314.735 233.519 314.752 233.835 314.568 234.041C314.405 234.224 298.236 252.385 298.236 260.307C298.236 261.86 299.23 268.785 301.411 280.319C301.462 280.59 301.284 280.852 301.013 280.903C300.983 280.908 300.952 280.911 300.921 280.911Z" fill="black"/>
<path d="M305.057 235.258C304.785 235.258 304.562 235.04 304.557 234.767C304.449 228.627 306.858 226.096 308.898 225.053C311.177 223.888 313.804 224.171 315.237 224.748C315.372 223.954 315.751 222.718 316.809 221.744C317.979 220.667 319.659 220.198 321.796 220.346C322.317 219.193 324.147 215.53 326.635 214.95C327.676 214.707 328.681 215.013 329.628 215.855C329.835 216.038 329.853 216.354 329.67 216.561C329.487 216.767 329.171 216.786 328.964 216.603C328.265 215.982 327.577 215.761 326.863 215.925C324.876 216.387 323.093 219.792 322.574 221.064C322.491 221.269 322.284 221.39 322.062 221.373C320.048 221.171 318.51 221.543 317.494 222.474C316.159 223.695 316.161 225.515 316.161 225.534C316.163 225.724 316.056 225.9 315.887 225.986C315.717 226.071 315.513 226.055 315.362 225.941C314.67 225.422 311.866 224.662 309.353 225.946C306.792 227.255 305.478 230.3 305.557 234.752C305.562 235.028 305.342 235.256 305.066 235.261C305.063 235.258 305.06 235.258 305.057 235.258Z" fill="black"/>
<path d="M321.091 229.331C321.001 229.331 320.91 229.306 320.827 229.256L315.508 225.95C315.274 225.804 315.202 225.496 315.347 225.261C315.493 225.027 315.801 224.955 316.036 225.1L321.355 228.406C321.589 228.552 321.661 228.86 321.516 229.095C321.422 229.248 321.258 229.331 321.091 229.331Z" fill="black"/>
<path d="M327.431 224.68C327.341 224.68 327.25 224.656 327.167 224.605L321.848 221.299C321.614 221.153 321.542 220.845 321.687 220.61C321.833 220.376 322.141 220.304 322.376 220.449L327.695 223.755C327.929 223.901 328.001 224.209 327.856 224.444C327.762 224.596 327.598 224.68 327.431 224.68Z" fill="black"/>
<path d="M356.407 344.916C363.466 353.101 362.156 398.393 352.725 401.453C368.673 401.834 375.263 390.997 376.201 381.449C377.138 371.9 375.978 337.33 356.407 344.916Z" fill="#7886FF"/>
<path d="M209.79 401.454H267.949C269.639 401.454 271.009 400.084 271.009 398.394C271.009 396.704 269.639 395.334 267.949 395.334H209.79C208.1 395.334 206.73 396.704 206.73 398.394C206.729 400.084 208.1 401.454 209.79 401.454Z" fill="black"/>
<path d="M72.3279 401.454H224.621C226.311 401.454 227.681 400.084 227.681 398.394C227.681 396.704 226.311 395.334 224.621 395.334H72.3279C70.6379 395.334 69.2679 396.704 69.2679 398.394C69.2679 400.084 70.6379 401.454 72.3279 401.454Z" fill="white"/>
<path d="M216.805 370.25H221.561C228.376 370.25 233.901 364.726 233.901 357.91V282.581C233.901 275.766 228.376 270.241 221.561 270.241H216.805C209.99 270.241 204.465 275.766 204.465 282.581V357.91C204.465 364.725 209.99 370.25 216.805 370.25Z" fill="black"/>
<path d="M81.6079 370.25H216.625C223.44 370.25 228.965 364.726 228.965 357.91V282.581C228.965 275.766 223.44 270.241 216.625 270.241H81.6079C74.7929 270.241 69.2679 275.766 69.2679 282.581V357.91C69.2679 364.725 74.7929 370.25 81.6079 370.25Z" fill="white"/>
<path d="M134.77 401.453H160.684V370.249H134.77V401.453Z" fill="white"/>
<path d="M135.206 320.246C135.206 327.928 141.434 334.156 149.116 334.156C156.798 334.156 163.026 327.928 163.026 320.246C163.026 312.563 156.798 306.336 149.116 306.336C141.434 306.335 135.206 312.563 135.206 320.246Z" fill="#D4D8FF"/>
<path d="M199.682 370.75H81.6079C74.5279 370.75 68.7679 364.99 68.7679 357.91V282.581C68.7679 275.501 74.5279 269.741 81.6079 269.741C81.8839 269.741 82.1079 269.965 82.1079 270.241C82.1079 270.517 81.8839 270.741 81.6079 270.741C75.0799 270.741 69.7679 276.052 69.7679 282.581V357.91C69.7679 364.439 75.0799 369.75 81.6079 369.75H199.682C199.958 369.75 200.182 369.974 200.182 370.25C200.182 370.526 199.958 370.75 199.682 370.75Z" fill="black"/>
<path d="M72.3289 401.954C70.3659 401.954 68.7679 400.357 68.7679 398.394C68.7679 396.431 70.3649 394.834 72.3289 394.834H170.52C170.796 394.834 171.02 395.058 171.02 395.334C171.02 395.61 170.796 395.834 170.52 395.834H72.3289C70.9169 395.834 69.7679 396.982 69.7679 398.394C69.7679 399.806 70.9159 400.954 72.3289 400.954C72.6049 400.954 72.8289 401.178 72.8289 401.454C72.8289 401.73 72.6049 401.954 72.3289 401.954Z" fill="black"/>
<path d="M308.975 401.762H273.003C273.003 395.107 281.056 389.712 290.989 389.712C300.922 389.712 308.975 395.107 308.975 401.762Z" fill="white"/>
<path d="M278.131 402.659C278.116 402.659 278.102 402.659 278.087 402.657C277.812 402.633 277.608 402.39 277.632 402.115C278.051 397.317 281.163 393.168 285.199 392.026C285.462 391.949 285.741 392.105 285.816 392.371C285.891 392.637 285.737 392.913 285.471 392.988C281.826 394.02 279.011 397.809 278.628 402.202C278.606 402.462 278.388 402.659 278.131 402.659Z" fill="black"/>
<path d="M390.885 347.104C383.086 349.457 375.796 348.157 374.601 344.199C373.407 340.241 378.76 335.124 386.559 332.771C394.358 330.418 401.648 331.718 402.843 335.677C404.038 339.634 398.684 344.75 390.885 347.104Z" fill="#38AB9B"/>
<path d="M415.574 360.092C415.298 360.092 415.074 359.868 415.074 359.592V352.312C415.065 346.508 413.108 341.989 409.564 339.588C404.995 336.492 398.044 336.766 388.907 340.401C388.652 340.503 388.36 340.378 388.258 340.121C388.156 339.865 388.282 339.574 388.538 339.472C398.002 335.708 405.265 335.469 410.124 338.76C413.951 341.352 416.064 346.164 416.074 352.311V359.592C416.074 359.868 415.851 360.092 415.574 360.092Z" fill="black"/>
<path d="M438.203 321.15C432.307 326.771 425.215 328.902 422.362 325.91C419.509 322.918 421.976 315.935 427.872 310.314C433.768 304.693 440.86 302.562 443.713 305.554C446.565 308.546 444.099 315.529 438.203 321.15Z" fill="#38AB9B"/>
<path d="M415.626 351.468H415.625C415.349 351.468 415.125 351.243 415.126 350.967C415.161 334.87 417.623 329.88 432.69 315.371C432.888 315.181 433.206 315.185 433.397 315.385C433.588 315.584 433.583 315.9 433.383 316.092C418.418 330.503 416.16 335.066 416.125 350.969C416.125 351.245 415.902 351.468 415.626 351.468Z" fill="black"/>
<path d="M437.72 355.519C437.658 355.608 437.596 355.696 437.532 355.784C434.141 360.483 434.141 366.754 437.532 371.453C439.598 374.316 440.775 377.614 440.775 381.125C440.775 392.117 429.234 401.028 414.998 401.028C400.762 401.028 389.22 392.117 389.22 381.125C389.22 377.615 390.397 374.317 392.463 371.453C395.854 366.754 395.854 360.483 392.463 355.784C392.4 355.696 392.337 355.608 392.275 355.519C389.515 351.554 392.541 346.112 397.372 346.112H432.623C437.454 346.113 440.479 351.554 437.72 355.519Z" fill="#FFBA3C"/>
<path d="M407.409 307.107C413.072 312.963 415.254 320.04 412.282 322.914C409.31 325.788 402.31 323.371 396.647 317.516C390.984 311.66 388.802 304.584 391.774 301.709C394.746 298.834 401.746 301.251 407.409 307.107Z" fill="#38AB9B"/>
<path d="M398.794 367.858C395.226 375.252 389.291 379.778 385.539 377.967C381.786 376.156 381.637 368.694 385.205 361.3C388.773 353.906 394.708 349.38 398.46 351.191C402.212 353.003 402.362 360.465 398.794 367.858Z" fill="#38AB9B"/>
<path d="M435.286 380.944C433.454 388.947 428.677 394.681 424.615 393.751C420.553 392.821 418.746 385.58 420.577 377.577C422.409 369.574 427.186 363.84 431.248 364.77C435.31 365.701 437.118 372.942 435.286 380.944Z" fill="#38AB9B"/>
<path d="M431.47 293.562C428.814 301.33 423.464 306.534 419.521 305.186C415.578 303.838 414.536 296.448 417.192 288.679C419.848 280.911 425.198 275.707 429.141 277.055C433.084 278.403 434.127 285.794 431.47 293.562Z" fill="#38AB9B"/>
<path d="M437.396 355.33C430.654 350.758 427.069 344.278 429.39 340.856C431.71 337.434 439.057 338.366 445.799 342.938C452.541 347.51 456.126 353.99 453.806 357.412C451.485 360.834 444.138 359.902 437.396 355.33Z" fill="#38AB9B"/>
<path d="M441.597 349.634C441.491 349.634 441.385 349.6 441.294 349.531C431.341 341.925 425.393 339.005 421.408 339.761C419.433 340.137 417.818 341.468 416.325 343.948C416.182 344.184 415.875 344.26 415.639 344.118C415.402 343.976 415.326 343.668 415.469 343.432C417.119 340.69 418.947 339.212 421.221 338.778C425.517 337.962 431.699 340.938 441.902 348.735C442.121 348.903 442.163 349.217 441.996 349.436C441.896 349.566 441.748 349.634 441.597 349.634Z" fill="black"/>
<path d="M427.931 379.761C427.849 379.761 427.766 379.741 427.69 379.699C427.448 379.566 427.36 379.261 427.493 379.02C435.805 363.942 429.81 350.357 423.141 345.924C420.244 343.997 417.56 344.051 415.965 346.068C415.794 346.284 415.481 346.322 415.262 346.15C415.046 345.979 415.009 345.664 415.18 345.447C417.104 343.016 420.367 342.879 423.694 345.091C430.672 349.73 436.983 363.875 428.368 379.502C428.278 379.668 428.107 379.761 427.931 379.761Z" fill="black"/>
<path d="M392.618 363.042C392.552 363.042 392.486 363.029 392.423 363.002C392.169 362.894 392.05 362.6 392.158 362.346C396.176 352.884 401.624 346.604 407.498 344.662C410.154 343.783 412.798 343.879 415.045 344.916C414.658 335.142 412.647 322.854 401.688 312.676C401.486 312.488 401.474 312.172 401.662 311.969C401.849 311.766 402.166 311.755 402.369 311.943C413.921 322.671 415.762 335.64 416.075 345.74C416.08 345.922 415.987 346.093 415.83 346.186C415.672 346.278 415.478 346.279 415.322 346.187C413.14 344.907 410.543 344.707 407.812 345.61C404.57 346.682 398.346 350.331 393.079 362.735C392.997 362.928 392.812 363.042 392.618 363.042Z" fill="black"/>
<path d="M415.574 346.258C415.298 346.258 415.074 346.034 415.074 345.758V345.626C415.073 319.586 418.209 300.136 423.905 290.859C424.05 290.623 424.358 290.55 424.593 290.694C424.828 290.839 424.902 291.147 424.757 291.382C419.156 300.503 416.072 319.767 416.073 345.625V345.757C416.074 346.034 415.851 346.258 415.574 346.258Z" fill="black"/>
<path d="M446.106 401.454H45.488V415.002H446.106V401.454Z" fill="#5459BF"/>
<path d="M365.632 393.51C369.744 393.51 378.421 391.057 378.935 385.851H406.421C406.421 385.851 402.799 393.51 397.479 393.51C392.158 393.51 365.632 393.51 365.632 393.51Z" fill="#FF6145"/>
<path d="M379.285 393.51H365.632V401.169H379.285V393.51Z" fill="#FF6145"/>
<path d="M406.591 393.51H379.285V401.169H406.591V393.51Z" fill="#FF6145"/>
<path d="M399.329 397H388.92C388.644 397 388.42 396.776 388.42 396.5C388.42 396.224 388.644 396 388.92 396H399.329C399.605 396 399.829 396.224 399.829 396.5C399.829 396.776 399.605 397 399.329 397Z" fill="black"/>
<path d="M396.496 399.004H379.285C379.009 399.004 378.785 398.78 378.785 398.504C378.785 398.228 379.009 398.004 379.285 398.004H396.496C396.772 398.004 396.996 398.228 396.996 398.504C396.996 398.78 396.772 399.004 396.496 399.004Z" fill="black"/>
<path d="M376.7 399.004H371.805C371.529 399.004 371.305 398.78 371.305 398.504C371.305 398.228 371.529 398.004 371.805 398.004H376.7C376.976 398.004 377.2 398.228 377.2 398.504C377.2 398.78 376.977 399.004 376.7 399.004Z" fill="black"/>
<path d="M370.532 397H365.637C365.361 397 365.137 396.776 365.137 396.5C365.137 396.224 365.361 396 365.637 396H370.532C370.808 396 371.032 396.224 371.032 396.5C371.032 396.776 370.808 397 370.532 397Z" fill="black"/>
<path d="M406.591 394.01H365.633C365.357 394.01 365.133 393.786 365.133 393.51C365.133 393.234 365.357 393.01 365.633 393.01H406.591C406.867 393.01 407.091 393.234 407.091 393.51C407.091 393.787 406.867 394.01 406.591 394.01Z" fill="black"/>
<path d="M379.285 401.669C379.009 401.669 378.785 401.445 378.785 401.169V393.51C378.785 393.234 379.009 393.01 379.285 393.01C379.561 393.01 379.785 393.234 379.785 393.51V401.169C379.785 401.445 379.561 401.669 379.285 401.669Z" fill="black"/>
</svg>
